HIERARCHY
ROOT Hips
{
	OFFSET 0.000000 0.000000 0.000000
	CHANNELS 6 Xposition Yposition Zposition Zrotation Yrotation Xrotation 
	JOINT LHipJoint
	{
		OFFSET 0.000000 0.000000 0.000000
		CHANNELS 3 Zrotation Yrotation Xrotation
		JOINT LeftUpLeg
		{
			OFFSET 1.363060 -1.794630 0.839290
			CHANNELS 3 Zrotation Yrotation Xrotation
			JOINT LeftLeg
			{
				OFFSET 2.448110 -6.726130 0.000000
				CHANNELS 3 Zrotation Yrotation Xrotation
				JOINT LeftFoot
				{
					OFFSET 2.562200 -7.039590 0.000000
					CHANNELS 3 Zrotation Yrotation Xrotation
					JOINT LeftToeBase
					{
						OFFSET 0.157640 -0.433110 2.322550
						CHANNELS 3 Zrotation Yrotation Xrotation
						End Site
						{
							OFFSET 0.000000 0.000000 0.000000
						}
					}
				}
			}
		}
	}
	JOINT RHipJoint
	{
		OFFSET 0.000000 0.000000 0.000000
		CHANNELS 3 Zrotation Yrotation Xrotation
		JOINT RightUpLeg
		{
			OFFSET -1.305520 -1.794630 0.839290
			CHANNELS 3 Zrotation Yrotation Xrotation
			JOINT RightLeg
			{
				OFFSET -2.542530 -6.985550 0.000000
				CHANNELS 3 Zrotation Yrotation Xrotation
				JOINT RightFoot
				{
					OFFSET -2.568260 -7.056230 0.000000
					CHANNELS 3 Zrotation Yrotation Xrotation
					JOINT RightToeBase
					{
						OFFSET -0.164730 -0.452590 2.363150
						CHANNELS 3 Zrotation Yrotation Xrotation
						End Site
						{
							OFFSET 0.000000 0.000000 0.000000
						}
					}
				}
			}
		}
	}
	JOINT LowerBack
	{
		OFFSET 0.000000 0.000000 0.000000
		CHANNELS 3 Zrotation Yrotation Xrotation
		JOINT Spine
		{
			OFFSET 0.028270 2.035590 -0.193380
			CHANNELS 3 Zrotation Yrotation Xrotation
			JOINT Spine1
			{
				OFFSET 0.056720 2.048850 -0.042750
				CHANNELS 3 Zrotation Yrotation Xrotation
				JOINT Neck
				{
					OFFSET 0.000000 0.000000 0.000000
					CHANNELS 3 Zrotation Yrotation Xrotation
					JOINT Neck1
					{
						OFFSET -0.054170 1.746240 0.172020
						CHANNELS 3 Zrotation Yrotation Xrotation
						JOINT Head
						{
							OFFSET 0.104070 1.761360 -0.123970
							CHANNELS 3 Zrotation Yrotation Xrotation
							End Site
							{
								OFFSET 0.000000 0.000000 0.000000
							}
						}
					}
				}
				JOINT LeftShoulder
				{
					OFFSET 0.000000 0.000000 0.000000
					CHANNELS 3 Zrotation Yrotation Xrotation
					JOINT LeftArm
					{
						OFFSET 3.362410 1.200890 -0.311210
						CHANNELS 3 Zrotation Yrotation Xrotation
						JOINT LeftForeArm
						{
							OFFSET 4.983000 -0.000000 -0.000000
							CHANNELS 3 Zrotation Yrotation Xrotation
							JOINT LeftHand
							{
								OFFSET 3.483560 -0.000000 -0.000000
								CHANNELS 3 Zrotation Yrotation Xrotation
								JOINT LeftFingerBase
								{
									OFFSET 0.000000 0.000000 0.000000
									CHANNELS 3 Zrotation Yrotation Xrotation
									JOINT LeftHandIndex1
									{
										OFFSET 0.715260 -0.000000 -0.000000
										CHANNELS 3 Zrotation Yrotation Xrotation
										End Site
										{
											OFFSET 0.000000 0.000000 0.000000
										}
									}
								}
								JOINT LThumb
								{
									OFFSET 0.000000 0.000000 0.000000
									CHANNELS 3 Zrotation Yrotation Xrotation
									End Site
									{
										OFFSET 0.000000 0.000000 0.000000
									}
								}
							}
						}
					}
				}
				JOINT RightShoulder
				{
					OFFSET 0.000000 0.000000 0.000000
					CHANNELS 3 Zrotation Yrotation Xrotation
					JOINT RightArm
					{
						OFFSET -3.136600 1.374050 -0.404650
						CHANNELS 3 Zrotation Yrotation Xrotation
						JOINT RightForeArm
						{
							OFFSET -5.241900 -0.000000 -0.000000
							CHANNELS 3 Zrotation Yrotation Xrotation
							JOINT RightHand
							{
								OFFSET -3.444170 -0.000000 -0.000000
								CHANNELS 3 Zrotation Yrotation Xrotation
								JOINT RightFingerBase
								{
									OFFSET 0.000000 0.000000 0.000000
									CHANNELS 3 Zrotation Yrotation Xrotation
									JOINT RightHandIndex1
									{
										OFFSET -0.622530 -0.000000 -0.000000
										CHANNELS 3 Zrotation Yrotation Xrotation
										End Site
										{
											OFFSET 0.000000 0.000000 0.000000
										}
									}
								}
								JOINT RThumb
								{
									OFFSET 0.000000 0.000000 0.000000
									CHANNELS 3 Zrotation Yrotation Xrotation
									End Site
									{
										OFFSET 0.000000 0.000000 0.000000
									}
								}
							}
						}
					}
				}
			}
		}
	}
}
MOTION
Frames: 4
Frame Time: 0.008333
2.340410 16.979577 -0.986773 -36.333052 82.579783 -31.574749 -11.373545 5.550005 -0.493671 -7.146261 16.245588 2.221799 -0.115978 2.585813 35.449809 1.412796 2.702098 23.550527 0.667700 -0.000001 -69.213000 8.533243 -1.137299 4.582651 12.883845 8.589506 -24.719036 3.548452 -0.294698 13.107442 1.100284 7.057770 2.113998 0.783300 0.000000 -46.414800 3.700278 -6.659582 -5.180041 0.730473 -7.131119 -3.839372 -5.732292 -7.201058 -0.232941 10.351389 -19.283995 -7.923568 -3.481787 -0.279228 0.058304 0.000000 0.000000 0.000000 1.180377 2.263991 -1.419510 -67.773780 2.847986 13.774345 -0.868989 -84.519341 -0.068317 12.095393 -3.280551 -0.392319 -0.165013 0.399703 -0.000000 0.000000 0.000000 0.000000 0.000000 0.000000 0.000000 16.064167 -17.375399 -0.725919 58.055202 -12.002847 -5.235195 1.031669 67.042860 -0.004793 -7.519256 5.417456 -0.373718 0.156245 -0.166470 0.000000 0.000000 0.000000 0.000000 0.000000 0.000000 0.000000 
2.550180 16.962787 -1.028576 -42.245602 82.336315 -37.750643 -11.594565 5.379028 -0.671890 -5.995480 17.836545 0.933581 0.126224 2.576531 38.293375 1.710600 5.199003 24.310576 1.845600 0.000000 -63.790500 8.478438 -1.453263 4.378718 14.065339 7.137596 -24.439436 3.623147 -0.469384 14.089083 1.137592 7.347286 2.576861 0.880900 0.000000 -43.327800 4.385832 -6.515643 -4.884229 0.840563 -7.036685 -3.802326 -5.835028 -7.103792 -0.280499 10.534188 -19.021748 -7.946774 -3.534530 -0.282921 0.049054 0.000000 0.000000 0.000000 0.936508 2.531830 -1.355055 -68.558342 3.186805 13.648473 -0.882748 -83.563126 -0.067363 12.209223 -3.279274 -0.395067 -0.166321 0.391396 -0.000000 0.000000 0.000000 0.000000 0.000000 0.000000 0.000000 16.453193 -17.048524 -0.750661 57.940939 -11.292651 -4.831537 1.023707 67.076011 -0.005586 -7.677830 5.391015 -0.379819 0.155933 -0.168227 0.000000 0.000000 0.000000 0.000000 0.000000 0.000000 0.000000 
2.755404 16.946584 -1.070573 -47.048176 82.024988 -42.796765 -11.829261 5.185304 -0.861889 -4.962457 19.348530 -0.397909 0.325721 2.571516 41.104091 2.002795 7.912589 24.516596 3.160700 0.000000 -57.152599 8.373196 -1.748245 4.190528 15.146324 5.842707 -24.168285 3.706710 -0.627315 15.123889 1.178894 7.741003 2.666374 0.964500 -0.000000 -40.435100 4.998293 -6.344330 -4.587226 0.928426 -6.906110 -3.761287 -5.947061 -6.969118 -0.315288 10.739857 -18.759093 -7.987822 -3.588037 -0.286417 0.034356 0.000000 0.000000 0.000000 0.717494 2.857540 -1.292431 -69.336943 3.555423 13.481083 -0.893700 -82.562094 -0.066237 12.332422 -3.274641 -0.397627 -0.167465 0.381944 -0.000000 0.000000 0.000000 0.000000 0.000000 0.000000 0.000000 16.883327 -16.699326 -0.768929 57.883564 -10.467842 -4.333650 1.022407 67.023276 -0.006276 -7.776758 5.348695 -0.381718 0.155174 -0.169847 0.000000 0.000000 0.000000 0.000000 0.000000 0.000000 0.000000 
2.956041 16.931378 -1.111880 -50.735446 81.673018 -46.689791 -12.053281 4.982700 -1.054940 -4.098922 20.706205 -1.770978 0.481942 2.584166 43.834927 2.276513 10.664518 24.155530 4.469300 -0.000000 -50.174100 8.242064 -2.008546 4.029037 16.091804 4.772567 -23.906822 3.787800 -0.769101 16.204816 1.216728 8.170353 2.409572 1.017000 0.000000 -37.908300 5.531454 -6.143547 -4.305244 0.992686 -6.738573 -3.718381 -6.069204 -6.796115 -0.334449 10.968901 -18.494532 -8.048263 -3.643145 -0.289801 0.013825 0.000000 0.000000 0.000000 0.526847 3.258134 -1.231676 -70.092313 3.949523 13.281291 -0.902078 -81.526353 -0.064929 12.467744 -3.266097 -0.399997 -0.168496 0.371302 -0.000000 0.000000 0.000000 0.000000 0.000000 0.000000 0.000000 17.361433 -16.321510 -0.782748 57.874815 -9.542479 -3.735394 1.026643 66.906249 -0.006860 -7.818454 5.291143 -0.379814 0.154053 -0.171385 0.000000 0.000000 0.000000 0.000000 0.000000 0.000000 0.000000 
